<svg xmlns="http://www.w3.org/2000/svg" viewBox="0 0 1200 680" width="1200" height="680">
  <defs>
    <linearGradient id="bg" x1="0" y1="0" x2="1200" y2="680" gradientUnits="userSpaceOnUse">
      <stop offset="0%" stop-color="#0d1117"/>
      <stop offset="100%" stop-color="#161b22"/>
    </linearGradient>
  </defs>

  <rect width="1200" height="680" rx="12" fill="url(#bg)"/>

  <!-- Title -->
  <text x="600" y="50" text-anchor="middle" font-family="system-ui,-apple-system,Segoe UI,sans-serif" font-size="40" font-weight="800" fill="#ffffff">Applied AI Engineering</text>
  <text x="600" y="78" text-anchor="middle" font-family="system-ui,-apple-system,Segoe UI,sans-serif" font-size="17" font-weight="600" fill="#b0bac5" letter-spacing="3">FOUNDATION MODELS TO PRODUCTION · 20 COURSES</text>

  <!-- ═══ ROW 1: C1–C5 (y=160) ═══ -->
  <line x1="130" y1="160" x2="1070" y2="160" stroke="#21262d" stroke-width="2"/>

  <g transform="translate(130,160)">
    <circle r="38" fill="#4a9eff" fill-opacity="0.15" stroke="#4a9eff" stroke-width="2.5"/>
    <line x1="-10" y1="-12" x2="0" y2="0" stroke="#4a9eff" stroke-width="3.5" stroke-linecap="round"/>
    <line x1="10" y1="-12" x2="0" y2="0" stroke="#4a9eff" stroke-width="3.5" stroke-linecap="round"/>
    <line x1="0" y1="0" x2="0" y2="14" stroke="#4a9eff" stroke-width="3.5" stroke-linecap="round"/>
    <circle cx="-10" cy="-12" r="3.5" fill="#4a9eff" fill-opacity="0.5"/>
    <circle cx="10" cy="-12" r="3.5" fill="#4a9eff" fill-opacity="0.5"/>
    <text y="58" text-anchor="middle" font-family="system-ui,sans-serif" font-size="13" font-weight="700" fill="#e6edf3">GenAI</text>
    <text y="-48" text-anchor="middle" font-family="system-ui,sans-serif" font-size="14" font-weight="800" fill="#4a9eff">1</text>
  </g>

  <g transform="translate(365,160)">
    <circle r="38" fill="#4a9eff" fill-opacity="0.15" stroke="#4a9eff" stroke-width="2.5"/>
    <path d="M0-16 L12-9 L12 3 Q12 14 0 18 Q-12 14 -12 3 L-12-9 Z" fill="#4a9eff" fill-opacity="0.20" stroke="#4a9eff" stroke-width="2.5"/>
    <text y="58" text-anchor="middle" font-family="system-ui,sans-serif" font-size="13" font-weight="700" fill="#e6edf3">Bedrock</text>
    <text y="-48" text-anchor="middle" font-family="system-ui,sans-serif" font-size="14" font-weight="800" fill="#4a9eff">2</text>
  </g>

  <g transform="translate(600,160)">
    <circle r="38" fill="#4a9eff" fill-opacity="0.15" stroke="#4a9eff" stroke-width="2.5"/>
    <rect x="-14" y="-12" width="28" height="18" rx="4" fill="#4a9eff" fill-opacity="0.20" stroke="#4a9eff" stroke-width="2.5"/>
    <line x1="-8" y1="-5" x2="8" y2="-5" stroke="#4a9eff" stroke-width="2" opacity="0.6"/>
    <line x1="-8" y1="0" x2="6" y2="0" stroke="#4a9eff" stroke-width="2" opacity="0.6"/>
    <text y="58" text-anchor="middle" font-family="system-ui,sans-serif" font-size="13" font-weight="700" fill="#e6edf3">NLP</text>
    <text y="-48" text-anchor="middle" font-family="system-ui,sans-serif" font-size="14" font-weight="800" fill="#4a9eff">3</text>
  </g>

  <g transform="translate(835,160)">
    <circle r="38" fill="#9f8fef" fill-opacity="0.15" stroke="#9f8fef" stroke-width="2.5"/>
    <path d="M-12 5 Q-12-7 -3-7 Q0-16 10-12 Q18-8 16 0 Q22 7 14 7 L-10 7 Q-16 7 -12 5 Z" fill="#9f8fef" fill-opacity="0.20" stroke="#9f8fef" stroke-width="2.5"/>
    <text y="58" text-anchor="middle" font-family="system-ui,sans-serif" font-size="13" font-weight="700" fill="#e6edf3">Orchestration</text>
    <text y="-48" text-anchor="middle" font-family="system-ui,sans-serif" font-size="14" font-weight="800" fill="#9f8fef">4</text>
  </g>

  <g transform="translate(1070,160)">
    <circle r="38" fill="#9f8fef" fill-opacity="0.15" stroke="#9f8fef" stroke-width="2.5"/>
    <rect x="-12" y="-14" width="24" height="28" rx="3" fill="#9f8fef" fill-opacity="0.20" stroke="#9f8fef" stroke-width="2.5"/>
    <line x1="-6" y1="-7" x2="-6" y2="-2" stroke="#9f8fef" stroke-width="2"/>
    <line x1="0" y1="-7" x2="0" y2="-2" stroke="#9f8fef" stroke-width="2"/>
    <line x1="6" y1="-7" x2="6" y2="-2" stroke="#9f8fef" stroke-width="2"/>
    <line x1="-6" y1="3" x2="-6" y2="8" stroke="#9f8fef" stroke-width="2"/>
    <line x1="0" y1="3" x2="0" y2="8" stroke="#9f8fef" stroke-width="2"/>
    <line x1="6" y1="3" x2="6" y2="8" stroke="#9f8fef" stroke-width="2"/>
    <text y="58" text-anchor="middle" font-family="system-ui,sans-serif" font-size="13" font-weight="700" fill="#e6edf3">AIOps</text>
    <text y="-48" text-anchor="middle" font-family="system-ui,sans-serif" font-size="14" font-weight="800" fill="#9f8fef">5</text>
  </g>

  <!-- Row 1→2 connector -->
  <path d="M1070,198 L1070,230 Q1070,240 1060,240 L140,240 Q130,240 130,250 L130,290" fill="none" stroke="#21262d" stroke-width="2"/>

  <!-- ═══ ROW 2: C6–C10 (y=290) ═══ -->
  <line x1="130" y1="290" x2="1070" y2="290" stroke="#21262d" stroke-width="2"/>

  <g transform="translate(130,290)">
    <circle r="38" fill="#9f8fef" fill-opacity="0.15" stroke="#9f8fef" stroke-width="2.5"/>
    <path d="M0-14 L10-8 L10 2 Q10 12 0 16 Q-10 12 -10 2 L-10-8 Z" fill="#9f8fef" fill-opacity="0.20" stroke="#9f8fef" stroke-width="2.5"/>
    <polyline points="-4,2 -1,6 6,-2" fill="none" stroke="#9f8fef" stroke-width="2.5" stroke-linecap="round"/>
    <text y="58" text-anchor="middle" font-family="system-ui,sans-serif" font-size="13" font-weight="700" fill="#e6edf3">Security</text>
    <text y="-48" text-anchor="middle" font-family="system-ui,sans-serif" font-size="14" font-weight="800" fill="#9f8fef">6</text>
  </g>

  <g transform="translate(365,290)">
    <circle r="38" fill="#00b8d9" fill-opacity="0.15" stroke="#00b8d9" stroke-width="2.5"/>
    <rect x="-10" y="-6" width="6" height="18" fill="#00b8d9" fill-opacity="0.30"/>
    <rect x="-2" y="-12" width="6" height="24" fill="#00b8d9" fill-opacity="0.30"/>
    <rect x="6" y="-3" width="6" height="15" fill="#00b8d9" fill-opacity="0.30"/>
    <text y="58" text-anchor="middle" font-family="system-ui,sans-serif" font-size="13" font-weight="700" fill="#e6edf3">Analytics</text>
    <text y="-48" text-anchor="middle" font-family="system-ui,sans-serif" font-size="14" font-weight="800" fill="#00b8d9">7</text>
  </g>

  <g transform="translate(600,290)">
    <circle r="38" fill="#00b8d9" fill-opacity="0.15" stroke="#00b8d9" stroke-width="2.5"/>
    <text x="0" y="2" text-anchor="middle" font-family="monospace" font-size="16" font-weight="700" fill="#00b8d9">&gt;_</text>
    <text y="58" text-anchor="middle" font-family="system-ui,sans-serif" font-size="13" font-weight="700" fill="#e6edf3">CLI</text>
    <text y="-48" text-anchor="middle" font-family="system-ui,sans-serif" font-size="14" font-weight="800" fill="#00b8d9">8</text>
  </g>

  <g transform="translate(835,290)">
    <circle r="38" fill="#00b8d9" fill-opacity="0.15" stroke="#00b8d9" stroke-width="2.5"/>
    <circle r="14" fill="none" stroke="#00b8d9" stroke-width="2.5"/>
    <polyline points="-6,1 -1,7 8,-6" fill="none" stroke="#00b8d9" stroke-width="3" stroke-linecap="round" stroke-linejoin="round"/>
    <text y="58" text-anchor="middle" font-family="system-ui,sans-serif" font-size="13" font-weight="700" fill="#e6edf3">Quality</text>
    <text y="-48" text-anchor="middle" font-family="system-ui,sans-serif" font-size="14" font-weight="800" fill="#00b8d9">9</text>
  </g>

  <g transform="translate(1070,290)">
    <circle r="38" fill="#00b8d9" fill-opacity="0.15" stroke="#00b8d9" stroke-width="2.5"/>
    <path d="M-8-8 A12 12 0 1 1 -10 2" fill="none" stroke="#00b8d9" stroke-width="2.5" stroke-linecap="round"/>
    <polygon points="-13,2 -7,2 -10,-3" fill="#00b8d9"/>
    <circle cx="0" cy="0" r="4" fill="#00b8d9" fill-opacity="0.35" stroke="#00b8d9" stroke-width="2"/>
    <text y="58" text-anchor="middle" font-family="system-ui,sans-serif" font-size="13" font-weight="700" fill="#e6edf3">Agents</text>
    <text y="-48" text-anchor="middle" font-family="system-ui,sans-serif" font-size="14" font-weight="800" fill="#00b8d9">10</text>
  </g>

  <!-- Row 2→3 connector -->
  <path d="M1070,328 L1070,360 Q1070,370 1060,370 L140,370 Q130,370 130,380 L130,420" fill="none" stroke="#21262d" stroke-width="2"/>

  <!-- ═══ ROW 3: C11–C15 (y=420) ═══ -->
  <line x1="130" y1="420" x2="1070" y2="420" stroke="#21262d" stroke-width="2"/>

  <g transform="translate(130,420)">
    <circle r="38" fill="#36b37e" fill-opacity="0.15" stroke="#36b37e" stroke-width="2.5"/>
    <circle cx="-4" cy="-4" r="8" fill="none" stroke="#36b37e" stroke-width="2.5"/>
    <line x1="2" y1="2" x2="10" y2="10" stroke="#36b37e" stroke-width="3" stroke-linecap="round"/>
    <text y="58" text-anchor="middle" font-family="system-ui,sans-serif" font-size="13" font-weight="700" fill="#e6edf3">Debugging</text>
    <text y="-48" text-anchor="middle" font-family="system-ui,sans-serif" font-size="14" font-weight="800" fill="#36b37e">11</text>
  </g>

  <g transform="translate(365,420)">
    <circle r="38" fill="#36b37e" fill-opacity="0.15" stroke="#36b37e" stroke-width="2.5"/>
    <rect x="-12" y="-10" width="24" height="16" rx="2" fill="#36b37e" fill-opacity="0.20" stroke="#36b37e" stroke-width="2.5"/>
    <circle cx="0" cy="-2" r="4" fill="#36b37e" fill-opacity="0.35"/>
    <text y="58" text-anchor="middle" font-family="system-ui,sans-serif" font-size="13" font-weight="700" fill="#e6edf3">Multi-Modal</text>
    <text y="-48" text-anchor="middle" font-family="system-ui,sans-serif" font-size="14" font-weight="800" fill="#36b37e">12</text>
  </g>

  <g transform="translate(600,420)">
    <circle r="38" fill="#36b37e" fill-opacity="0.15" stroke="#36b37e" stroke-width="2.5"/>
    <rect x="-10" y="-12" width="20" height="24" rx="3" fill="#36b37e" fill-opacity="0.20" stroke="#36b37e" stroke-width="2.5"/>
    <line x1="-5" y1="-4" x2="5" y2="-4" stroke="#36b37e" stroke-width="2" opacity="0.6"/>
    <circle cx="0" cy="4" r="3" fill="none" stroke="#36b37e" stroke-width="2"/>
    <text y="58" text-anchor="middle" font-family="system-ui,sans-serif" font-size="13" font-weight="700" fill="#e6edf3">Privacy</text>
    <text y="-48" text-anchor="middle" font-family="system-ui,sans-serif" font-size="14" font-weight="800" fill="#36b37e">13</text>
  </g>

  <g transform="translate(835,420)">
    <circle r="38" fill="#ffab00" fill-opacity="0.15" stroke="#ffab00" stroke-width="2.5"/>
    <polyline points="-10,-6 -4,0 2,-6 8,0 14,-6" fill="none" stroke="#ffab00" stroke-width="3" stroke-linecap="round"/>
    <line x1="-10" y1="6" x2="14" y2="6" stroke="#ffab00" stroke-width="2.5" stroke-linecap="round"/>
    <text y="58" text-anchor="middle" font-family="system-ui,sans-serif" font-size="13" font-weight="700" fill="#e6edf3">Pipelines</text>
    <text y="-48" text-anchor="middle" font-family="system-ui,sans-serif" font-size="14" font-weight="800" fill="#ffab00">14</text>
  </g>

  <g transform="translate(1070,420)">
    <circle r="38" fill="#ffab00" fill-opacity="0.15" stroke="#ffab00" stroke-width="2.5"/>
    <circle cx="0" cy="0" r="10" fill="#ffab00" fill-opacity="0.20" stroke="#ffab00" stroke-width="2.5"/>
    <line x1="0" y1="-10" x2="0" y2="-16" stroke="#ffab00" stroke-width="2.5" stroke-linecap="round"/>
    <line x1="10" y1="0" x2="16" y2="0" stroke="#ffab00" stroke-width="2.5" stroke-linecap="round"/>
    <line x1="-10" y1="0" x2="-16" y2="0" stroke="#ffab00" stroke-width="2.5" stroke-linecap="round"/>
    <text y="58" text-anchor="middle" font-family="system-ui,sans-serif" font-size="13" font-weight="700" fill="#e6edf3">MCP</text>
    <text y="-48" text-anchor="middle" font-family="system-ui,sans-serif" font-size="14" font-weight="800" fill="#ffab00">15</text>
  </g>

  <!-- Row 3→4 connector -->
  <path d="M1070,458 L1070,490 Q1070,500 1060,500 L140,500 Q130,500 130,510 L130,550" fill="none" stroke="#21262d" stroke-width="2"/>

  <!-- ═══ ROW 4: C16–C20 (y=550) ═══ -->
  <line x1="130" y1="550" x2="1070" y2="550" stroke="#21262d" stroke-width="2"/>

  <g transform="translate(130,550)">
    <circle r="38" fill="#ffab00" fill-opacity="0.15" stroke="#ffab00" stroke-width="2.5"/>
    <rect x="-12" y="-10" width="24" height="16" rx="4" fill="#ffab00" fill-opacity="0.20" stroke="#ffab00" stroke-width="2.5"/>
    <polygon points="-5,6 -9,14 1,6" fill="#ffab00" fill-opacity="0.20" stroke="#ffab00" stroke-width="2"/>
    <text y="58" text-anchor="middle" font-family="system-ui,sans-serif" font-size="13" font-weight="700" fill="#e6edf3">Bots</text>
    <text y="-48" text-anchor="middle" font-family="system-ui,sans-serif" font-size="14" font-weight="800" fill="#ffab00">16</text>
  </g>

  <g transform="translate(365,550)">
    <circle r="38" fill="#ffab00" fill-opacity="0.15" stroke="#ffab00" stroke-width="2.5"/>
    <circle r="14" fill="none" stroke="#ffab00" stroke-width="2.5"/>
    <line x1="-4" y1="-4" x2="4" y2="4" stroke="#ffab00" stroke-width="3" stroke-linecap="round"/>
    <line x1="4" y1="-4" x2="-4" y2="4" stroke="#ffab00" stroke-width="3" stroke-linecap="round"/>
    <circle cx="0" cy="0" r="3" fill="#ffab00" fill-opacity="0.4"/>
    <text y="58" text-anchor="middle" font-family="system-ui,sans-serif" font-size="13" font-weight="700" fill="#e6edf3">Code Review</text>
    <text y="-48" text-anchor="middle" font-family="system-ui,sans-serif" font-size="14" font-weight="800" fill="#ffab00">17</text>
  </g>

  <g transform="translate(600,550)">
    <circle r="38" fill="#ff5630" fill-opacity="0.12" stroke="#ff5630" stroke-width="2.5"/>
    <path d="M0-14 L10-8 L10 2 Q10 12 0 16 Q-10 12 -10 2 L-10-8 Z" fill="#ff5630" fill-opacity="0.18" stroke="#ff5630" stroke-width="2.5"/>
    <line x1="-3" y1="-3" x2="3" y2="3" stroke="#ff5630" stroke-width="3" stroke-linecap="round"/>
    <line x1="3" y1="-3" x2="-3" y2="3" stroke="#ff5630" stroke-width="3" stroke-linecap="round"/>
    <text y="58" text-anchor="middle" font-family="system-ui,sans-serif" font-size="13" font-weight="700" fill="#e6edf3">LLM Security</text>
    <text y="-48" text-anchor="middle" font-family="system-ui,sans-serif" font-size="14" font-weight="800" fill="#ff5630">18</text>
  </g>

  <g transform="translate(835,550)">
    <circle r="38" fill="#ffab00" fill-opacity="0.15" stroke="#ffab00" stroke-width="2.5"/>
    <rect x="-12" y="-14" width="24" height="28" rx="3" fill="#ffab00" fill-opacity="0.20" stroke="#ffab00" stroke-width="2.5"/>
    <line x1="-6" y1="-6" x2="6" y2="-6" stroke="#ffab00" stroke-width="2"/>
    <line x1="-6" y1="0" x2="6" y2="0" stroke="#ffab00" stroke-width="2"/>
    <line x1="-6" y1="6" x2="4" y2="6" stroke="#ffab00" stroke-width="2"/>
    <text y="58" text-anchor="middle" font-family="system-ui,sans-serif" font-size="13" font-weight="700" fill="#e6edf3">SaaS</text>
    <text y="-48" text-anchor="middle" font-family="system-ui,sans-serif" font-size="14" font-weight="800" fill="#ffab00">19</text>
  </g>

  <g transform="translate(1070,550)">
    <circle r="38" fill="#ffab00" fill-opacity="0.15" stroke="#ffab00" stroke-width="2.5"/>
    <path d="M0-16 Q8-12 8 0 L3 8 L-3 8 L-8 0 Q-8-12 0-16 Z" fill="#ffab00" fill-opacity="0.30" stroke="#ffab00" stroke-width="2.5"/>
    <circle cx="0" cy="-5" r="3" fill="#ffab00" fill-opacity="0.6"/>
    <line x1="-4" y1="8" x2="-6" y2="15" stroke="#ff5630" stroke-width="2.5" stroke-linecap="round"/>
    <line x1="0" y1="8" x2="0" y2="16" stroke="#ff5630" stroke-width="2.5" stroke-linecap="round"/>
    <line x1="4" y1="8" x2="6" y2="15" stroke="#ff5630" stroke-width="2.5" stroke-linecap="round"/>
    <text y="58" text-anchor="middle" font-family="system-ui,sans-serif" font-size="13" font-weight="700" fill="#e6edf3">Capstone</text>
    <text y="-48" text-anchor="middle" font-family="system-ui,sans-serif" font-size="14" font-weight="800" fill="#ffab00">20</text>
  </g>

  <!-- Footer -->
  <text x="600" y="660" text-anchor="middle" font-family="system-ui,sans-serif" font-size="13" font-weight="500" fill="#6e7681">Pragmatic AI Labs · Coursera</text>
</svg>
